<?xml version="1.0" standalone="no"?>
<!DOCTYPE svg PUBLIC "-//W3C//DTD SVG 20010904//EN"
 "http://www.w3.org/TR/2001/REC-SVG-20010904/DTD/svg10.dtd">
<svg version="1.0" xmlns="http://www.w3.org/2000/svg"
 width="512.000000pt" height="512.000000pt" viewBox="0 0 512.000000 512.000000"
 preserveAspectRatio="xMidYMid meet">
<metadata>
Created by potrace 1.14, written by Peter Selinger 2001-2017
</metadata>
<g transform="translate(0.000000,512.000000) scale(0.100000,-0.100000)"
fill="#000000" stroke="none">
<path d="M1320 4194 c-663 -459 -1211 -842 -1217 -851 -27 -35 -15 -77 46
-164 106 -152 120 -155 264 -57 l97 67 0 -1255 0 -1254 271 0 271 0 29 29 29
29 0 279 0 278 -45 24 c-154 82 -167 317 -23 421 178 130 427 -10 406 -227 -8
-85 -68 -173 -137 -204 l-31 -14 0 -276 c0 -310 -6 -347 -65 -416 -19 -22 -56
-51 -82 -64 -46 -23 -57 -24 -336 -27 l-287 -4 0 -52 c0 -148 69 -267 195
-334 l50 -27 478 -3 477 -3 0 857 c0 834 -1 859 -20 898 -12 25 -106 127 -242
263 l-223 222 -55 -15 c-110 -29 -226 23 -284 125 -93 167 28 372 219 374 146
1 257 -108 257 -253 0 -30 -5 -68 -12 -84 -11 -29 -9 -32 233 -275 219 -221
247 -252 268 -306 l24 -60 3 -872 3 -873 169 0 170 0 0 1201 c0 1046 -2 1205
-15 1233 -8 17 -118 134 -243 259 -221 221 -229 228 -256 217 -36 -13 -119
-13 -168 2 -51 15 -121 77 -147 131 -47 97 -16 239 67 307 38 31 115 60 162
60 106 0 216 -83 245 -185 17 -57 14 -129 -5 -166 -7 -12 43 -67 216 -240 124
-123 238 -244 254 -269 62 -97 60 -47 60 -1357 l0 -1193 170 0 170 0 0 1193
c0 1310 -2 1260 60 1357 16 25 130 146 254 269 173 173 223 228 216 240 -19
37 -22 109 -5 166 29 102 139 185 245 185 47 0 124 -29 162 -60 83 -68 114
-210 67 -307 -26 -54 -96 -116 -147 -131 -49 -15 -132 -15 -168 -2 -27 11 -35
4 -256 -217 -125 -125 -235 -242 -243 -259 -13 -28 -15 -187 -15 -1233 l0
-1201 170 0 170 0 0 828 c0 487 4 855 10 895 6 37 20 87 31 110 13 26 115 136
261 283 237 239 239 241 228 270 -7 16 -12 55 -12 88 0 151 137 269 290 249
136 -18 243 -169 214 -301 -33 -145 -174 -234 -312 -198 l-55 15 -223 -222
c-136 -136 -230 -238 -242 -263 -19 -39 -20 -64 -20 -898 l0 -857 478 3 477 3
45 24 c70 37 98 61 135 115 39 58 65 146 65 222 l0 52 -287 4 c-279 3 -290 4
-336 27 -26 13 -63 42 -82 64 -59 69 -65 106 -65 418 l0 277 -29 12 c-16 6
-45 28 -65 47 -152 152 -61 411 151 430 108 10 197 -35 250 -124 24 -41 28
-59 28 -123 0 -54 -5 -86 -19 -114 -24 -48 -74 -99 -115 -117 l-31 -14 0 -278
0 -279 29 -29 29 -29 271 0 271 0 0 1255 0 1255 97 -67 c143 -99 158 -96 264
56 61 87 73 129 47 164 -7 9 -555 393 -1218 852 -1039 720 -1210 835 -1240
835 -30 -1 -207 -120 -1240 -836z m1298 370 l22 -14 0 -489 0 -489 30 -12 c41
-17 115 -99 131 -146 64 -189 -103 -378 -296 -335 -147 33 -234 191 -186 335
16 47 90 129 131 146 l30 12 2 492 3 491 35 17 c36 18 58 16 98 -8z"/>
</g>
</svg>
